<svg width="713" height="713" viewBox="0 0 713 713" fill="none" xmlns="http://www.w3.org/2000/svg">
<circle cx="356.5" cy="356.5" r="356.5" fill="#000700"/>
<path d="M117.1 347.528V345.396H160.642V356.876H128.58V380H117.1V356.876V347.528ZM165.48 337.36H117.1V325.88H165.48V337.36ZM173.715 325.798H185.195V380H173.715V325.798ZM193.414 380V350.234L204.894 361.714V380H193.414ZM225.804 325.798H237.284V380H234.496L226.378 371.882L212.766 358.27L204.894 350.398L193.414 338.918V332.03V326.864V325.47H196.202L225.804 354.99V325.798ZM243.584 376.802L261.378 344.74L268.594 357.696L256.868 378.934L256.294 380H241.862L243.584 376.802ZM302.788 376.802L304.51 380H290.078L289.504 378.934L278.68 359.418L273.35 349.824L273.186 349.496L265.97 336.458L266.544 335.392L271.218 326.864L271.792 325.716H274.58L275.072 326.864L279.828 335.392L302.788 376.802ZM311.129 380V350.234L322.609 361.714V380H311.129ZM343.519 325.798H354.999V380H352.211L344.093 371.882L330.481 358.27L322.609 350.398L311.129 338.918V332.03V326.864V325.47H313.917L343.519 354.99V325.798ZM403.158 358.434H415.212L414.31 361.304C412.588 366.716 409.226 371.308 404.634 374.752C399.878 378.196 394.302 380 388.48 380C381.92 380 375.606 377.704 370.604 373.358C365.766 369.094 362.486 363.272 361.584 356.876C361.42 355.564 361.338 354.17 361.338 352.858C361.338 351.546 361.42 350.316 361.584 349.004C362.486 342.608 365.684 336.704 370.604 332.44C375.524 328.094 381.92 325.716 388.48 325.716C394.466 325.716 400.206 327.602 404.962 331.21C409.554 334.736 412.998 339.738 414.556 345.314L415.376 348.02H403.486L402.912 346.708C400.452 340.968 394.794 337.196 388.48 337.196C381.018 337.196 374.54 342.444 373.146 349.742C372.9 350.808 372.818 351.792 372.818 352.858C372.818 353.924 372.9 355.072 373.146 356.056C374.622 363.272 381.1 368.52 388.48 368.52C394.466 368.52 399.96 365.076 402.584 359.664L403.158 358.434ZM421.797 325.88H470.177V337.36H421.797V328.012V325.88ZM433.277 356.876V368.52H470.177V380H421.797V370.652V368.52V345.314L433.277 345.396H465.339V356.876H433.277Z" fill="white"/>
<path d="M523.508 325.962H534.988V380H523.508V357.04H498.58V380H487.1V325.962H498.58V345.478H523.508V325.962ZM554.795 325.88V338.672L543.315 350.152V325.88H554.795ZM591.449 376.392L595.139 380H578.903L578.247 379.426L559.961 361.058L554.795 366.224V380H543.315V361.468L561.765 343.018V342.936L578.903 325.88H595.139L591.449 329.57L568.079 352.94L591.449 376.392Z" fill="#ADFFFF"/>
</svg>
