<svg width="713" height="713" viewBox="0 0 713 713" fill="none" xmlns="http://www.w3.org/2000/svg">
<circle cx="356.5" cy="356.5" r="356.5" fill="#001A07"/>
<path d="M136.1 353.608V350.956H190.262V365.236H150.38V394H136.1V365.236V353.608ZM196.28 340.96H136.1V326.68H196.28V340.96ZM206.524 326.578H220.804V394H206.524V326.578ZM231.028 394V356.974L245.308 371.254V394H231.028ZM271.318 326.578H285.598V394H282.13L272.032 383.902L255.1 366.97L245.308 357.178L231.028 342.898V334.33V327.904V326.17H234.496L271.318 362.89V326.578ZM293.433 390.022L315.567 350.14L324.543 366.256L309.957 392.674L309.243 394H291.291L293.433 390.022ZM367.077 390.022L369.219 394H351.267L350.553 392.674L337.089 368.398L330.459 356.464L330.255 356.056L321.279 339.838L321.993 338.512L327.807 327.904L328.521 326.476H331.989L332.601 327.904L338.517 338.512L367.077 390.022ZM377.454 394V356.974L391.734 371.254V394H377.454ZM417.744 326.578H432.024V394H428.556L418.458 383.902L401.526 366.97L391.734 357.178L377.454 342.898V334.33V327.904V326.17H380.922L417.744 362.89V326.578ZM491.929 367.174H506.923L505.801 370.744C503.659 377.476 499.477 383.188 493.765 387.472C487.849 391.756 480.913 394 473.671 394C465.511 394 457.657 391.144 451.435 385.738C445.417 380.434 441.337 373.192 440.215 365.236C440.011 363.604 439.909 361.87 439.909 360.238C439.909 358.606 440.011 357.076 440.215 355.444C441.337 347.488 445.315 340.144 451.435 334.84C457.555 329.434 465.511 326.476 473.671 326.476C481.117 326.476 488.257 328.822 494.173 333.31C499.885 337.696 504.169 343.918 506.107 350.854L507.127 354.22H492.337L491.623 352.588C488.563 345.448 481.525 340.756 473.671 340.756C464.389 340.756 456.331 347.284 454.597 356.362C454.291 357.688 454.189 358.912 454.189 360.238C454.189 361.564 454.291 362.992 454.597 364.216C456.433 373.192 464.491 379.72 473.671 379.72C481.117 379.72 487.951 375.436 491.215 368.704L491.929 367.174ZM515.114 326.68H575.294V340.96H515.114V329.332V326.68ZM529.394 365.236V379.72H575.294V394H515.114V382.372V379.72V350.854L529.394 350.956H569.276V365.236H529.394Z" fill="#7FD7D3"/>
</svg>
